<?xml version="1.0" standalone="no"?>
<!DOCTYPE svg PUBLIC "-//W3C//DTD SVG 20010904//EN"
 "http://www.w3.org/TR/2001/REC-SVG-20010904/DTD/svg10.dtd">
<svg version="1.0" xmlns="http://www.w3.org/2000/svg"
 width="840.000000pt" height="1667.000000pt" viewBox="0 0 840.000000 1667.000000"
 preserveAspectRatio="xMidYMid meet">

<g transform="translate(0.000000,1667.000000) scale(0.100000,-0.100000)"
fill="#000000" stroke="none">
<path d="M5720 16245 c-797 -59 -1471 -272 -2020 -638 -275 -184 -583 -481
-772 -743 -360 -503 -568 -1097 -618 -1774 -6 -80 -10 -633 -10 -1347 l0
-1213 -985 0 -985 0 0 -1350 0 -1350 982 -2 983 -3 3 -3712 2 -3713 1430 0
1430 0 0 3715 0 3715 1388 0 1388 0 13 268 c6 147 16 359 21 472 20 417 51
1067 70 1466 11 227 20 430 20 453 l0 41 -1450 0 -1450 0 0 1063 c0 1151 3
1230 54 1431 40 157 94 255 196 356 114 115 221 169 420 214 157 36 231 38
1200 36 l956 -1 17 708 c10 389 25 955 33 1257 8 303 11 553 7 557 -8 7 -324
40 -568 58 -628 49 -1376 64 -1755 36z"/>
</g>
</svg>
